<?xml version="1.0" encoding="UTF-8"?><svg id="Layer_2" xmlns="http://www.w3.org/2000/svg" viewBox="0 0 285.53 342.1"><defs><style>.cls-1{fill:#1475f4;}</style></defs><g id="Layer_1-2"><path class="cls-1" d="M104.12,69.38h103.52V27.63L145.75,1c-3.25-1.34-6.31-1.34-8.59.07L3.59,85.06c-2.28,1.46-3.59,4.18-3.59,7.66v112.33l77.83,33.46h.04V95.63c0-14.49,11.76-26.25,26.25-26.25Z"/><path class="cls-1" d="M207.67,212.26c0,14.53-11.76,26.25-26.25,26.25h-103.56v42.42l61.95,26.59c3.21,1.42,6.27,1.38,8.55-.04l133.58-83.99c2.28-1.46,3.58-4.22,3.58-7.62v-112.37l-77.9-34.13.04,142.88Z"/><rect class="cls-1" x=".23" y="238.51" width="77.59" height="103.59"/></g></svg>