<svg width="15" height="16" viewBox="0 0 15 16" fill="none" xmlns="http://www.w3.org/2000/svg">
<g clip-path="url(#clip0_9023_1039)">
<path d="M5.22541 0.993212C3.72667 1.51314 2.43417 2.49997 1.53774 3.80876C0.641311 5.11755 0.188209 6.67932 0.244988 8.26466C0.301766 9.84999 0.865433 11.3753 1.85319 12.6167C2.84095 13.858 4.20074 14.7498 5.73283 15.1612C6.97493 15.4817 8.27628 15.4958 9.52502 15.2022C10.6562 14.9481 11.7021 14.4046 12.5602 13.6249C13.4532 12.7885 14.1015 11.7246 14.4352 10.5475C14.7979 9.26743 14.8624 7.92126 14.6238 6.61235H7.64884V9.50571H11.6883C11.6076 9.96718 11.4346 10.4076 11.1796 10.8007C10.9247 11.1937 10.5931 11.5313 10.2047 11.7932C9.71144 12.1195 9.1554 12.339 8.57228 12.4377C7.98745 12.5465 7.38758 12.5465 6.80275 12.4377C6.21 12.3152 5.64927 12.0705 5.15627 11.7194C4.36425 11.1587 3.76956 10.3623 3.45705 9.4436C3.13925 8.50774 3.13925 7.49314 3.45705 6.55727C3.6795 5.90128 4.04724 5.304 4.53283 4.81001C5.08852 4.23432 5.79205 3.82282 6.56622 3.62065C7.34038 3.41847 8.15528 3.43344 8.9215 3.66392C9.52006 3.84766 10.0674 4.16869 10.5199 4.60142C10.9754 4.14829 11.4301 3.69399 11.884 3.23852C12.1184 2.9936 12.3738 2.7604 12.6047 2.50962C11.914 1.86682 11.1032 1.36664 10.2188 1.03774C8.60826 0.452966 6.84608 0.437251 5.22541 0.993212Z" fill="white"/>
<path d="M5.22617 0.993293C6.84672 0.436954 8.60889 0.452256 10.2195 1.03665C11.1041 1.36778 11.9145 1.87037 12.6043 2.51556C12.3699 2.76634 12.1227 3.00072 11.8836 3.24447C11.4289 3.69837 10.9746 4.15072 10.5207 4.6015C10.0682 4.16877 9.52082 3.84774 8.92227 3.664C8.1563 3.43272 7.34143 3.41688 6.56705 3.61823C5.79268 3.81957 5.08873 4.23032 4.53242 4.8054C4.04684 5.29939 3.67909 5.89667 3.45664 6.55267L1.02734 4.67181C1.89688 2.94747 3.40244 1.62848 5.22617 0.993293Z" fill="#E33629"/>
<path d="M0.381637 6.53516C0.512209 5.88804 0.728985 5.26136 1.02617 4.67188L3.45547 6.55742C3.13767 7.49329 3.13767 8.50788 3.45547 9.44375C2.64609 10.0687 1.83632 10.6969 1.02617 11.3281C0.282204 9.84725 0.0553084 8.15996 0.381637 6.53516Z" fill="#F8BD00"/>
<path d="M7.64896 6.61133H14.624C14.8625 7.92023 14.798 9.26641 14.4353 10.5465C14.1016 11.7236 13.4533 12.7875 12.5603 13.6238C11.7763 13.0121 10.9888 12.4051 10.2048 11.7934C10.5935 11.5312 10.9253 11.1932 11.1802 10.7998C11.4351 10.4063 11.608 9.9654 11.6884 9.50352H7.64896C7.64779 8.54023 7.64896 7.57578 7.64896 6.61133Z" fill="#587DBD"/>
<path d="M1.02539 11.3282C1.83555 10.7032 2.64531 10.0751 3.45469 9.44385C3.76782 10.3628 4.36336 11.1593 5.15625 11.7196C5.65079 12.0692 6.21273 12.3118 6.80625 12.4321C7.39108 12.5409 7.99095 12.5409 8.57578 12.4321C9.1589 12.3334 9.71494 12.1139 10.2082 11.7876C10.9922 12.3993 11.7797 13.0063 12.5637 13.6181C11.7057 14.3982 10.6599 14.9421 9.52851 15.1966C8.27978 15.4901 6.97843 15.4761 5.73633 15.1556C4.75395 14.8933 3.83634 14.4309 3.04102 13.7974C2.19921 13.129 1.51167 12.2868 1.02539 11.3282Z" fill="#319F43"/>
</g>
<defs>
<clipPath id="clip0_9023_1039">
<rect width="15" height="15" fill="white" transform="translate(0 0.5)"/>
</clipPath>
</defs>
</svg>
